<?xml version="1.0" encoding="UTF-8"?>
<svg version="1.1" xmlns="http://www.w3.org/2000/svg" width="220" height="220">
<path d="M0 0 C84.48 0 168.96 0 256 0 C256 84.48 256 168.96 256 256 C171.52 256 87.04 256 0 256 C0 171.52 0 87.04 0 0 Z " fill="#FEFEFE" transform="translate(0,0)"/>
<path d="M0 0 C1.00071533 0.00491455 2.00143066 0.0098291 3.0324707 0.01489258 C32.17843388 0.47224052 51.74035081 15.03850275 71.296875 34.90234375 C73.24239908 36.81379018 75.17137267 38.51161763 77.3125 40.1875 C92.23065627 52.74450924 100.72839862 73.31833315 102.75 92.3125 C103.97775172 109.29945289 101.14839854 126.38201372 92.75 141.3125 C92.23695313 142.240625 91.72390625 143.16875 91.1953125 144.125 C79.26494286 164.21825413 60.34747793 177.55616831 37.90625 183.5859375 C22.19699926 187.20217591 4.91891741 186.86834445 -10.25 181.3125 C-11.27867188 180.961875 -12.30734375 180.61125 -13.3671875 180.25 C-27.63694461 174.9127402 -39.77174009 164.76952036 -49.51171875 153.23828125 C-51.27214343 151.28796807 -53.11665352 149.62894763 -55.125 147.9375 C-70.78784504 134.4819671 -81.10354864 115.99687762 -83.25 95.3125 C-84.02254397 83.18094088 -84.20191648 70.92873935 -80.25 59.3125 C-79.8478125 58.1059375 -79.445625 56.899375 -79.03125 55.65625 C-71.59365023 34.71494196 -55.32232461 17.09274628 -35.35351562 7.39111328 C-23.81915691 2.0933555 -12.69174151 -0.07458736 0 0 Z " fill="#253F48" transform="translate(119.25,35.6875)"/>
<path d="M0 0 C0.99 0.4228125 1.98 0.845625 3 1.28125 C18.17915244 8.69833585 29.54258621 22.53207796 35.0625 38.375 C39.43817194 52.6396192 39.07640164 70.34238252 33 84 C32.59910156 84.99644531 32.19820313 85.99289063 31.78515625 87.01953125 C25.16995478 101.95646441 11.89015881 113.70360749 -3.07421875 119.96875 C-21.54211724 126.47812944 -38.39116861 125.38214099 -56.09375 117.6484375 C-63.03108081 114.16028521 -68.52345802 109.45775453 -74 104 C-74.63808594 103.38511719 -75.27617188 102.77023438 -75.93359375 102.13671875 C-83.75089787 94.00602604 -88.36265141 82.83341653 -91 72 C-91.18304688 71.401875 -91.36609375 70.80375 -91.5546875 70.1875 C-94.93442106 53.58530003 -89.99795747 35.9709909 -81 22 C-71.63827632 9.11636486 -57.90181616 -1.00000566 -42.26171875 -4.63671875 C-27.5719965 -6.27281955 -13.66516194 -5.83875101 0 0 Z " fill="#243E46" transform="translate(155,69)"/>
<path d="M0 0 C1.00071533 0.00491455 2.00143066 0.0098291 3.0324707 0.01489258 C32.17843388 0.47224052 51.74035081 15.03850275 71.296875 34.90234375 C73.24239908 36.81379018 75.17137267 38.51161763 77.3125 40.1875 C92.23065627 52.74450924 100.72839862 73.31833315 102.75 92.3125 C103.97775172 109.29945289 101.14839854 126.38201372 92.75 141.3125 C92.23695313 142.240625 91.72390625 143.16875 91.1953125 144.125 C79.26494286 164.21825413 60.34747793 177.55616831 37.90625 183.5859375 C22.19699926 187.20217591 4.91891741 186.86834445 -10.25 181.3125 C-11.27867188 180.961875 -12.30734375 180.61125 -13.3671875 180.25 C-27.63694461 174.9127402 -39.77174009 164.76952036 -49.51171875 153.23828125 C-51.27214343 151.28796807 -53.11665352 149.62894763 -55.125 147.9375 C-70.78784504 134.4819671 -81.10354864 115.99687762 -83.25 95.3125 C-84.02254397 83.18094088 -84.20191648 70.92873935 -80.25 59.3125 C-79.8478125 58.1059375 -79.445625 56.899375 -79.03125 55.65625 C-71.59365023 34.71494196 -55.32232461 17.09274628 -35.35351562 7.39111328 C-23.81915691 2.0933555 -12.69174151 -0.07458736 0 0 Z M-57.25 41.3125 C-71.4869801 59.38153713 -76.19548229 81.71774773 -73.5625 104.25 C-70.62581583 122.37642988 -63.11353887 137.28987143 -50.25 150.3125 C-49.60289063 151.02019531 -48.95578125 151.72789062 -48.2890625 152.45703125 C-43.24293249 157.84300267 -37.63402696 161.64909213 -31.25 165.3125 C-30.44691406 165.7765625 -29.64382812 166.240625 -28.81640625 166.71875 C-19.89415988 171.52416348 -9.41312952 174.87668827 0.75 175.3125 C1.86246094 175.37566406 2.97492188 175.43882812 4.12109375 175.50390625 C25.53848629 176.16192327 46.88520931 170.2212691 62.75 155.3125 C63.23307617 154.86890137 63.71615234 154.42530273 64.21386719 153.96826172 C71.28568788 147.43446621 77.14692412 140.85599815 81.75 132.3125 C82.54857422 130.85457031 82.54857422 130.85457031 83.36328125 129.3671875 C93.08736351 110.11205687 94.59292578 88.1113546 88.49511719 67.50732422 C84.51243171 55.77588828 77.83861189 43.76702269 68.75 35.3125 C68.14929688 34.65765625 67.54859375 34.0028125 66.9296875 33.328125 C52.688667 18.08865657 33.43626929 10.23594848 12.73828125 9.02734375 C-15.78083487 8.38489549 -38.59504115 19.92860849 -57.25 41.3125 Z " fill="#FCC803" transform="translate(119.25,35.6875)"/>
<path d="M0 0 C0.98484375 0.00902344 1.9696875 0.01804688 2.984375 0.02734375 C4.10585937 0.04474609 4.10585937 0.04474609 5.25 0.0625 C5.25 2.3725 5.25 4.6825 5.25 7.0625 C4.08984375 7.24425781 4.08984375 7.24425781 2.90625 7.4296875 C-15.3614348 10.3687952 -32.6801095 16.031016 -44.75 31.0625 C-55.92054401 47.18362602 -61.47916072 64.43167684 -58.25 84.109375 C-57.55710388 86.83371656 -56.71804637 89.42379295 -55.75 92.0625 C-55.4096875 93.03703125 -55.069375 94.0115625 -54.71875 95.015625 C-48.41756684 111.62009413 -36.72033942 123.66575378 -20.75 131.0625 C-4.39027691 138.1568331 12.48377749 137.85058979 29.25 132.0625 C44.56966561 125.83306691 56.96940039 113.98788697 63.7109375 98.87817383 C67.35562002 90.20288217 68.95490914 81.34398452 70.25 72.0625 C72.56 72.0625 74.87 72.0625 77.25 72.0625 C78.53361454 89.21301651 71.84643829 105.88776798 60.9375 118.9375 C48.83689312 132.76794177 32.17437371 142.84724902 13.53710938 144.26953125 C-8.18919133 145.28410166 -26.71215215 140.93963899 -43.359375 126.3359375 C-56.88236845 113.47583589 -66.40289197 96.8334119 -66.953125 77.83203125 C-66.97426274 75.8464052 -66.98973129 73.86071201 -67 71.875 C-67.020625 70.89724609 -67.04125 69.91949219 -67.0625 68.91210938 C-67.15668293 51.09976188 -59.2043265 34.22087209 -47.1796875 21.30078125 C-36.10354015 10.75745149 -24.31241585 4.92261706 -9.75 1.0625 C-9.05519531 0.85625 -8.36039063 0.65 -7.64453125 0.4375 C-5.07447981 -0.07121121 -2.6166112 -0.03115013 0 0 Z " fill="#2ACEE2" transform="translate(122.75,55.9375)"/>
<path d="M0 0 C1.00071533 0.00491455 2.00143066 0.0098291 3.0324707 0.01489258 C26.79486418 0.38776348 46.02108312 9.87242773 62.75 26.3125 C63.89275391 27.43205078 63.89275391 27.43205078 65.05859375 28.57421875 C66.63656491 30.13948994 68.19612289 31.7233075 69.75 33.3125 C69.42 34.3025 69.09 35.2925 68.75 36.3125 C68.26273438 35.76722656 67.77546875 35.22195312 67.2734375 34.66015625 C52.83003525 19.2976284 33.71751314 11.25237097 12.73828125 10.02734375 C-10.70409665 9.49925884 -31.2727112 16.82087697 -48.42675781 33.02246094 C-63.97900369 48.2706376 -73.12382095 68.51416055 -73.5625 90.375 C-72.97417267 112.19213849 -66.61597073 132.26364189 -51.328125 148.12890625 C-49.14880275 150.4188332 -47.19388436 152.8213509 -45.25 155.3125 C-49.15672381 153.69013737 -52.0104347 151.03522885 -55.0625 148.1875 C-55.59584961 147.69032471 -56.12919922 147.19314941 -56.67871094 146.6809082 C-72.84195943 131.45846886 -82.64274759 112.11057699 -83.5390625 89.69140625 C-83.77306928 79.26785626 -83.63932083 69.2750491 -80.25 59.3125 C-79.8478125 58.1059375 -79.445625 56.899375 -79.03125 55.65625 C-71.59365023 34.71494196 -55.32232461 17.09274628 -35.35351562 7.39111328 C-23.81915691 2.0933555 -12.69174151 -0.07458736 0 0 Z " fill="#FB0C29" transform="translate(119.25,35.6875)"/>
<path d="M0 0 C3.63 0 7.26 0 11 0 C11 4.95 11 9.9 11 15 C13.31 15.66 15.62 16.32 18 17 C17.125 24.625 17.125 24.625 16 28 C15.113125 27.835 14.22625 27.67 13.3125 27.5 C7.61780496 26.69149391 1.72823131 26.52732077 -4 27 C-6.18891761 28.82473909 -6.18891761 28.82473909 -6.5 31.375 C-6.24041101 34.23508889 -6.24041101 34.23508889 -3.5625 36.0625 C-1.02456609 37.55785543 1.60520007 38.72083529 4.3125 39.875 C11.12167047 42.81296695 17.71534239 46.06684578 21 53 C21.8246573 58.52000338 21.74825056 63.4480729 19.3125 68.5 C15.98514151 72.09714431 12.59404318 75.16238273 8 77 C7.01 77 6.02 77 5 77 C5 80.63 5 84.26 5 88 C1.7 88 -1.6 88 -5 88 C-5 84.7 -5 81.4 -5 78 C-6.505625 78.061875 -8.01125 78.12375 -9.5625 78.1875 C-14.49304833 78.20854075 -17.65772339 77.26553562 -22 75 C-21.85831863 73.56208484 -21.71148957 72.1246763 -21.5625 70.6875 C-21.48128906 69.88699219 -21.40007812 69.08648437 -21.31640625 68.26171875 C-21 66 -21 66 -20 63 C-19.31035156 63.2165625 -18.62070313 63.433125 -17.91015625 63.65625 C-10.05028397 65.98510105 -3.04617637 67.07643261 5 65 C5.29183106 62.08168944 5.49340651 59.84531089 5 57 C1.53075286 53.62712084 -2.46373017 52.42761123 -6.9375 50.6875 C-13.21384629 48.16136808 -17.74406842 44.90420482 -21.16015625 38.9921875 C-22.99490132 34.64000152 -22.24226833 30.73955595 -20.8125 26.375 C-17.201285 19.65066862 -12.19986049 16.20680655 -5 14 C-3.35 14 -1.7 14 0 14 C0 9.38 0 4.76 0 0 Z " fill="#F5C708" transform="translate(128,84)"/>
<path d="M0 0 C19.87156429 -0.86537457 35.27952463 6.04520127 50 19 C62.08134802 30.30070707 71.52900585 47.03973351 72.09765625 63.89453125 C72.08605469 64.85746094 72.07445312 65.82039063 72.0625 66.8125 C72.05347656 67.78832031 72.04445313 68.76414062 72.03515625 69.76953125 C72.02355469 70.50558594 72.01195312 71.24164063 72 72 C69.69 72 67.38 72 65 72 C65 74.31 65 76.62 65 79 C64.67 79 64.34 79 64 79 C63.98582031 77.8140625 63.97164063 76.628125 63.95703125 75.40625 C63.43407423 53.89796643 57.12563085 37.48501267 41.27734375 22.35546875 C29.99578972 12.95830617 14.85316298 8.87569173 0.5 8.375 C-0.4178125 8.33632812 -1.335625 8.29765625 -2.28125 8.2578125 C-4.52064528 8.16450436 -6.76005254 8.07871815 -9 8 C-9 7.67 -9 7.34 -9 7 C-6.03 7 -3.06 7 0 7 C0 4.69 0 2.38 0 0 Z " fill="#5D7E89" transform="translate(128,56)"/>
<path d="M0 0 C0 3.51716303 -0.82445585 4.37121748 -3 7 C-2.67 7.66 -2.34 8.32 -2 9 C-3.05767578 9.56654297 -3.05767578 9.56654297 -4.13671875 10.14453125 C-7.45049877 12.29193304 -10.08532085 14.86565241 -12.8125 17.6875 C-13.31458984 18.19861328 -13.81667969 18.70972656 -14.33398438 19.23632812 C-15.56063509 20.48634362 -16.78097491 21.7425468 -18 23 C-18.99 22.67 -19.98 22.34 -21 22 C-20.38253906 21.48953125 -19.76507813 20.9790625 -19.12890625 20.453125 C-13.06635336 15.24874169 -8.39385702 9.88559779 -3.8125 3.40625 C-2 1 -2 1 0 0 Z " fill="#103845" transform="translate(192,164)"/>
<path d="M0 0 C0.66 0.33 1.32 0.66 2 1 C0.88266271 2.50571657 -0.24410035 4.00444292 -1.375 5.5 C-2.00148438 6.3353125 -2.62796875 7.170625 -3.2734375 8.03125 C-3.84320313 8.6809375 -4.41296875 9.330625 -5 10 C-5.66 10 -6.32 10 -7 10 C-7 13.96 -7 17.92 -7 22 C-9 20 -9 20 -9.3125 16.8125 C-8.73981245 9.82571193 -6.16573379 5.62197234 -1 1 C-0.67 0.67 -0.34 0.34 0 0 Z " fill="#D3B31B" transform="translate(115,101)"/>
<path d="M0 0 C0.33 0.99 0.66 1.98 1 3 C-0.14453125 5.04296875 -0.14453125 5.04296875 -1.8125 7.1875 C-2.62654297 8.26064453 -2.62654297 8.26064453 -3.45703125 9.35546875 C-4.22080078 10.16951172 -4.22080078 10.16951172 -5 11 C-5.66 11 -6.32 11 -7 11 C-7 11.66 -7 12.32 -7 13 C-7.66 13 -8.32 13 -9 13 C-7.47987323 7.59510481 -3.72614782 4.01507372 0 0 Z " fill="#255561" transform="translate(82,82)"/>
<path d="M0 0 C2.64 0 5.28 0 8 0 C8 3.3 8 6.6 8 10 C7.67 10 7.34 10 7 10 C6.34 7.36 5.68 4.72 5 2 C3.35 1.67 1.7 1.34 0 1 C0 0.67 0 0.34 0 0 Z " fill="#3E441D" transform="translate(115,162)"/>
<path d="M0 0 C1.32 0.33 2.64 0.66 4 1 C3.34 1 2.68 1 2 1 C2.185625 1.721875 2.37125 2.44375 2.5625 3.1875 C3.13735024 6.88296582 2.66849406 9.66301188 1 13 C-0.32 12.67 -1.64 12.34 -3 12 C-2.34 12 -1.68 12 -1 12 C-0.67 8.04 -0.34 4.08 0 0 Z " fill="#445238" transform="translate(145,100)"/>
<path d="M0 0 C-8.8 6 -8.8 6 -13 6 C-13 5.34 -13 4.68 -13 4 C-11.40233897 3.13372601 -9.79660056 2.28233535 -8.1875 1.4375 C-7.29417969 0.96183594 -6.40085938 0.48617187 -5.48046875 -0.00390625 C-3 -1 -3 -1 0 0 Z " fill="#0C3542" transform="translate(169,190)"/>
<path d="M0 0 C0.33 0.99 0.66 1.98 1 3 C-3.75 7 -3.75 7 -6 7 C-5.25 5.0625 -5.25 5.0625 -4 3 C-1.875 2.25 -1.875 2.25 0 2 C0 1.34 0 0.68 0 0 Z " fill="#123545" transform="translate(171,173)"/>
<path d="M0 0 C0.66 0 1.32 0 2 0 C0.68775452 3.93673644 -0.91910327 6.22719294 -4 9 C-3.67 7.35 -3.34 5.7 -3 4 C-2.01 3.67 -1.02 3.34 0 3 C0 2.01 0 1.02 0 0 Z " fill="#123F4E" transform="translate(181,161)"/>
</svg>
